<svg width="32" height="32" viewBox="0 0 32 32" fill="none" xmlns="http://www.w3.org/2000/svg">
    <rect width="32" height="32" rx="6" fill="#151520"/>
    
    <rect x="8" y="14" width="2" height="2" fill="white"/>
    <rect x="8" y="16" width="2" height="2" fill="white"/>
    <rect x="10" y="18" width="2" height="2" fill="white"/>
    <rect x="12" y="20" width="2" height="2" fill="white"/>
    <rect x="14" y="18" width="2" height="2" fill="white"/>
    <rect x="16" y="16" width="2" height="2" fill="white"/>
    <rect x="16" y="14" width="2" height="2" fill="white"/>
    
    <rect x="20" y="8" width="2" height="2" fill="white"/>
    <rect x="22" y="8" width="2" height="2" fill="white"/>
    <rect x="22" y="10" width="2" height="2" fill="white"/>
    <rect x="22" y="12" width="2" height="2" fill="white"/>
    <rect x="22" y="14" width="2" height="2" fill="white"/>
    <rect x="22" y="16" width="2" height="2" fill="white"/>
    <rect x="22" y="18" width="2" height="2" fill="white"/>
    <rect x="20" y="20" width="2" height="2" fill="white"/>
    <rect x="22" y="20" width="2" height="2" fill="white"/>
    <rect x="24" y="20" width="2" height="2" fill="white"/>
</svg>
