<svg width="122" height="50" viewBox="0 0 122 50" fill="none" xmlns="http://www.w3.org/2000/svg">
<mask id="mask0_793_3829" style="mask-type:alpha" maskUnits="userSpaceOnUse" x="0" y="0" width="118" height="50">
<rect width="117.925" height="50" fill="white"/>
</mask>
<g mask="url(#mask0_793_3829)">
<path fill-rule="evenodd" clip-rule="evenodd" d="M14.6765 11.8731C15.6863 11.3082 16.805 11.0665 17.8959 11.1181C18.6571 11.153 19.4205 11.3317 20.1404 11.6645C20.2998 11.7379 20.4561 11.8185 20.6086 11.906L35.434 20.1723C38.2127 21.7217 39.1477 25.1296 37.5381 27.7845C36.9904 28.688 36.2149 29.3923 35.3198 29.8651L20.8913 37.9371C19.1013 39.091 16.7035 39.2439 14.7081 38.1313C11.9293 36.5819 10.9944 33.174 12.6039 30.519L15.9434 25.0106L12.6494 19.5956C12.4832 19.3354 12.3403 19.0636 12.2216 18.7834C11.8929 18.0118 11.7577 17.1996 11.8 16.4045C11.8255 15.915 11.9188 15.424 12.0837 14.945C12.5105 13.6997 13.3983 12.5882 14.6765 11.8731ZM27.0161 26.4249C26.9145 26.3683 26.7933 26.3525 26.6794 26.3812C26.5656 26.4099 26.4684 26.4806 26.4096 26.5777L21.1391 35.2716C20.0134 37.1284 17.5345 37.7561 15.6023 36.6787C13.668 35.6003 13.0092 33.2191 14.136 31.3604L19.4066 22.6666C19.5281 22.4662 19.4569 22.2101 19.2471 22.0931L15.5784 20.0476C13.6442 18.9691 12.9854 16.5879 14.1122 14.7292C15.2379 12.8724 17.7168 12.2447 19.649 13.3221L34.5398 21.6248C36.474 22.7033 37.1329 25.0845 36.006 26.9432C34.8803 28.8 32.4014 29.4277 30.4692 28.3503L27.0161 26.4249Z" fill="white"/>
<path d="M57.5903 17.6302C57.6806 17.1269 57.2751 16.667 56.741 16.667L45.498 16.667C45.0809 16.667 44.7236 16.9528 44.6499 17.3454L44.2355 19.5537C44.1406 20.059 44.5468 20.5233 45.0836 20.5233H50.4383L48.2754 32.3581C48.1833 32.8622 48.589 33.3239 49.1242 33.3239H52.0535C52.4721 33.3239 52.8302 33.0362 52.9023 32.6418L55.117 20.5233H56.3451C56.7648 20.5233 57.1234 20.2341 57.1943 19.8385L57.5903 17.6302Z" fill="white"/>
<path fill-rule="evenodd" clip-rule="evenodd" d="M75.9601 22.7109C75.288 21.821 74.0731 21.3761 72.3153 21.3761C70.9367 21.3761 69.8424 21.7057 69.0325 22.3649L69.1617 21.6974H65.1809L63.8958 29.08C63.5245 30.0476 62.1758 30.4235 61.7904 30.4235C61.2734 30.4235 61.0149 30.201 61.0149 29.756C61.0149 29.6736 61.0235 29.583 61.0408 29.4841L62.3083 22.6656C62.4022 22.1608 61.9962 21.6974 61.46 21.6974H58.8161C58.3983 21.6974 58.0407 21.984 57.9677 22.3774L56.543 30.0527C56.4741 30.4482 56.4396 30.9096 56.4396 31.437C56.4396 31.9478 56.5947 32.434 56.9049 32.8954C57.3702 33.5876 58.3869 33.9337 59.9551 33.9337C60.9891 33.9337 62.4689 33.2436 63.2789 32.6009L63.2838 32.596L62.3493 37.9299C62.2619 38.4321 62.6668 38.8892 63.1992 38.8892H65.832C66.2597 38.8892 66.6226 38.5893 66.6846 38.1846L67.5074 32.8213C68.076 33.5629 69.0842 33.9337 70.5317 33.9337C71.9793 33.9337 73.1856 33.5299 74.1506 32.7224C75.1157 31.8984 75.7447 30.7036 76.0376 29.1381L76.5546 26.2459C76.6408 25.8174 76.6838 25.4136 76.6838 25.0346C76.6838 24.0952 76.4426 23.3207 75.9601 22.7109ZM70.9712 29.9291C70.5576 30.2257 70.1095 30.374 69.627 30.374C68.8515 30.374 68.3432 30.1433 68.1019 29.6819L68.8774 25.529C69.1531 25.117 69.739 24.911 70.6351 24.911C71.1866 24.911 71.5743 25.0511 71.7983 25.3312C72.0224 25.6114 72.1344 25.8751 72.1344 26.1223C72.1344 26.3695 72.1171 26.5754 72.0827 26.7402L71.7466 28.5942C71.6432 29.1875 71.3847 29.6324 70.9712 29.9291Z" fill="white"/>
<path d="M59.2914 20.5233C58.7483 20.5233 58.3406 20.0486 58.4462 19.5391L58.9038 17.3308C58.9838 16.945 59.3377 16.667 59.749 16.667L62.6844 16.667C63.2372 16.667 63.647 17.1578 63.5246 17.6734L63.0004 19.8817C62.9113 20.2569 62.5625 20.5233 62.1601 20.5233H59.2914Z" fill="white"/>
<path d="M87.0385 17.6303C87.1288 17.1269 86.7233 16.667 86.1893 16.667L74.9462 16.667C74.5291 16.667 74.1718 16.9528 74.0981 17.3454L73.6837 19.5537C73.5888 20.059 73.995 20.5233 74.5318 20.5233H79.8865L77.7236 32.3581C77.6315 32.8623 78.0372 33.3239 78.5724 33.3239H81.5017C81.9203 33.3239 82.2784 33.0362 82.3505 32.6418L84.5652 20.5233H85.7933C86.213 20.5233 86.5716 20.2341 86.6425 19.8386L87.0385 17.6303Z" fill="white"/>
<path fill-rule="evenodd" clip-rule="evenodd" d="M105.408 22.711C104.736 21.8211 103.521 21.3761 101.764 21.3761C100.385 21.3761 99.2906 21.7057 98.4807 22.3649L98.6099 21.6975H94.6291L93.344 29.08C92.9727 30.0476 91.624 30.4235 91.2386 30.4235C90.7216 30.4235 90.4631 30.201 90.4631 29.7561C90.4631 29.6737 90.4717 29.583 90.4889 29.4841L91.7565 22.6657C91.8504 22.1608 91.4444 21.6975 90.9082 21.6975H88.2643C87.8465 21.6975 87.4889 21.9841 87.4159 22.3774L85.9912 30.0527C85.9223 30.4482 85.8878 30.9096 85.8878 31.437C85.8878 31.9479 86.0429 32.434 86.3531 32.8955C86.8184 33.5876 87.8351 33.9337 89.4033 33.9337C90.4373 33.9337 91.9171 33.2436 92.7271 32.6009L92.732 32.596L91.7975 37.9299C91.7101 38.4321 92.1151 38.8892 92.6474 38.8892H95.2802C95.7079 38.8892 96.0708 38.5893 96.1328 38.1847L96.9556 32.8213C97.5243 33.5629 98.5324 33.9337 99.9799 33.9337C101.427 33.9337 102.634 33.5299 103.599 32.7224C104.564 31.8984 105.193 30.7037 105.486 29.1381L106.003 26.2459C106.089 25.8174 106.132 25.4137 106.132 25.0346C106.132 24.0953 105.891 23.3207 105.408 22.711ZM100.419 29.9291C100.006 30.2257 99.5577 30.3741 99.0752 30.3741C98.2997 30.3741 97.7914 30.1433 97.5501 29.6819L98.3256 25.529C98.6013 25.117 99.1872 24.911 100.083 24.911C100.635 24.911 101.023 25.0511 101.247 25.3313C101.471 25.6114 101.583 25.8751 101.583 26.1223C101.583 26.3695 101.565 26.5755 101.531 26.7403L101.195 28.5942C101.091 29.1875 100.833 29.6325 100.419 29.9291Z" fill="white"/>
<path d="M88.7396 20.5233C88.1965 20.5233 87.7888 20.0486 87.8944 19.5391L88.352 17.3308C88.432 16.945 88.7859 16.667 89.1972 16.667L92.1326 16.667C92.6854 16.667 93.0952 17.1579 92.9728 17.6734L92.4486 19.8817C92.3595 20.257 92.0107 20.5233 91.6083 20.5233H88.7396Z" fill="white"/>
</g>
</svg>
